<svg id="Layer_1" data-name="Layer 1" xmlns="http://www.w3.org/2000/svg" viewBox="0 0 128 128"><defs><style>.cls-1{fill:#f32a1c;}.cls-2{fill:#fff;}</style></defs><rect class="cls-1" x="34.36" y="40.87" width="49.04" height="39.47"/><rect class="cls-1" x="31.31" y="70.47" width="17.46" height="3.83" rx="1.91"/><rect class="cls-1" x="24.91" y="63.29" width="20.69" height="3.83" rx="1.91"/><rect class="cls-1" x="9.83" y="55.55" width="28.29" height="3.83" rx="1.91"/><rect class="cls-1" x="21.11" y="48.28" width="28.29" height="3.83" rx="1.91"/><rect class="cls-1" x="30.19" y="40.87" width="28.29" height="3.83" rx="1.91"/><rect class="cls-1" x="82.36" y="74.52" width="8.13" height="5.82"/><polygon class="cls-1" points="85.79 49.08 86.43 80.34 118.17 80.34 118.17 65.98 101.98 49.08 85.79 49.08"/><polygon class="cls-2" points="89.54 66.22 114.42 66.22 100.86 51.63 89.54 51.95 89.54 66.22"/><circle class="cls-2" cx="100.98" cy="79.76" r="7.38"/><circle class="cls-1" cx="100.98" cy="79.76" r="5.24"/><circle class="cls-2" cx="100.98" cy="79.76" r="1.97"/><circle class="cls-2" cx="47.33" cy="79.76" r="7.38"/><circle class="cls-1" cx="47.33" cy="79.76" r="5.24"/><circle class="cls-2" cx="47.33" cy="79.76" r="1.97"/><path class="cls-2" d="M66,51.63H22a1.92,1.92,0,0,0,0,3.83H66a1.92,1.92,0,1,0,0-3.83Z"/><path class="cls-2" d="M45.42,66.64H28.55a1.92,1.92,0,0,0,0,3.83H45.42a1.92,1.92,0,0,0,0-3.83Z"/><path class="cls-2" d="M57.56,59.47h-44a1.91,1.91,0,1,0,0,3.82h44a1.91,1.91,0,0,0,0-3.82Z"/><path class="cls-2" d="M22.51,48.28H52.78a1.92,1.92,0,0,0,0-3.83H22.51a1.92,1.92,0,0,0,0,3.83Z"/></svg>